<?xml version="1.0" standalone="no"?>
<!DOCTYPE svg PUBLIC "-//W3C//DTD SVG 20010904//EN"
 "http://www.w3.org/TR/2001/REC-SVG-20010904/DTD/svg10.dtd">
<svg version="1.0" xmlns="http://www.w3.org/2000/svg"
 width="1016.000000pt" height="552.000000pt" viewBox="0 0 1016.000000 552.000000"
 preserveAspectRatio="xMidYMid meet">

<g transform="translate(0.000000,552.000000) scale(0.100000,-0.100000)"
fill="#000000" stroke="none">
<path d="M5390 3692 l-35 -17 42 -3 c61 -5 67 -17 42 -98 -25 -83 -70 -167
-113 -212 -69 -73 -207 -132 -234 -99 -8 10 -5 34 10 89 26 96 94 198 172 257
66 50 68 66 3 28 -90 -53 -177 -177 -202 -289 -10 -42 -15 -84 -12 -92 24 -63
169 -15 274 90 57 57 123 164 123 201 0 7 7 33 16 59 14 43 14 47 -3 66 -30
34 -47 38 -83 20z"/>
<path d="M5317 3573 c-4 -3 -7 -11 -7 -17 0 -6 5 -5 12 2 6 6 9 14 7 17 -3 3
-9 2 -12 -2z"/>
<path d="M5347 3563 c-11 -19 -19 -78 -9 -68 11 11 27 75 18 75 -2 0 -7 -3 -9
-7z"/>
<path d="M5160 3365 c0 -9 5 -15 11 -13 6 2 11 8 11 13 0 5 -5 11 -11 13 -6 2
-11 -4 -11 -13z"/>
<path d="M5330 3230 c-30 -10 -67 -19 -81 -19 -15 -1 -53 -14 -84 -31 -31 -16
-63 -30 -70 -30 -7 0 -38 11 -69 25 -31 14 -70 25 -87 25 -17 0 -62 10 -101
21 -113 35 -185 22 -271 -48 -15 -12 -43 -30 -62 -39 -19 -9 -50 -33 -69 -54
-42 -47 -94 -179 -106 -273 -5 -40 -14 -88 -20 -107 -11 -39 -5 -84 36 -270
36 -161 50 -203 102 -304 31 -61 68 -113 118 -166 39 -42 77 -87 84 -99 15
-29 105 -71 152 -71 21 0 59 8 85 19 26 10 68 22 93 26 25 4 67 16 94 28 43
18 55 19 104 9 31 -6 74 -24 96 -39 37 -26 48 -28 123 -26 103 2 147 24 255
128 61 59 78 82 84 112 7 42 75 173 100 193 45 38 34 89 -25 121 -61 32 -118
91 -157 163 -34 62 -38 79 -42 155 l-4 86 54 105 c40 79 60 109 83 120 41 21
54 39 55 76 0 38 -43 75 -117 100 -26 9 -66 30 -89 46 -35 25 -51 29 -125 33
-65 3 -96 0 -139 -15z m183 -15 c21 -3 64 -21 95 -40 32 -18 69 -36 83 -40 13
-3 39 -19 58 -34 34 -28 35 -29 18 -55 -10 -14 -23 -26 -30 -26 -13 -1 -57
-67 -95 -145 l-25 -50 -10 35 c-13 45 -14 38 -22 -103 -7 -115 -8 -118 -41
-158 -38 -45 -41 -54 -19 -45 9 3 15 0 15 -9 0 -8 -4 -15 -10 -15 -5 0 -10 -6
-10 -14 0 -8 -7 -16 -15 -20 -18 -7 -20 -46 -2 -47 7 0 6 -3 -3 -6 -8 -4 14
-12 50 -19 43 -9 71 -21 83 -35 9 -12 17 -18 17 -15 0 4 21 -5 47 -19 27 -14
57 -25 68 -25 67 -1 88 -30 51 -69 -29 -30 -106 -174 -106 -197 0 -49 -100
-144 -151 -144 -15 0 -31 -4 -34 -10 -3 -5 1 -10 9 -10 24 0 19 -15 -7 -27
-33 -15 -72 -6 -148 33 -73 37 -84 40 -73 22 4 -7 -1 -6 -12 4 -10 9 -32 18
-49 20 -19 2 -34 11 -41 27 -12 23 -12 23 -19 2 -5 -16 -12 -20 -28 -16 -17 4
-26 -1 -39 -25 -19 -34 -37 -42 -153 -76 -44 -12 -98 -28 -120 -34 -73 -22
-117 -2 -217 101 -49 50 -88 94 -88 99 0 5 10 15 23 22 21 12 20 13 -18 18
-39 5 -41 7 -83 90 -35 71 -91 252 -92 297 0 7 17 21 38 32 41 22 35 26 -16
12 -30 -9 -34 -7 -42 13 -20 53 -22 160 -5 219 17 60 18 61 87 59 43 -1 47 3
50 47 2 30 4 31 49 31 84 0 106 9 114 44 4 17 8 33 9 36 1 3 5 11 10 18 4 7 5
16 2 20 -9 8 64 43 75 36 5 -3 18 0 29 6 14 8 25 7 39 -2 11 -7 23 -9 27 -5
10 10 -16 38 -29 30 -6 -3 -7 -1 -3 5 4 7 13 12 20 12 20 0 53 33 48 48 -3 11
6 12 42 9 44 -5 46 -4 46 20 0 28 14 26 83 -8 29 -15 37 -26 38 -47 l1 -27 9
25 c11 31 99 80 184 103 135 36 147 37 238 22z"/>
<path d="M5250 3090 c0 -5 5 -10 11 -10 5 0 7 5 4 10 -3 6 -8 10 -11 10 -2 0
-4 -4 -4 -10z"/>
<path d="M4940 3071 c0 -25 6 -27 13 -6 4 8 2 17 -3 20 -6 4 -10 -3 -10 -14z"/>
<path d="M5100 3051 c0 -17 12 -41 20 -41 10 0 1 38 -11 46 -5 3 -9 1 -9 -5z"/>
<path d="M5582 3049 c2 -6 8 -10 13 -10 5 0 11 4 13 10 2 6 -4 11 -13 11 -9 0
-15 -5 -13 -11z"/>
<path d="M4870 3011 c0 -5 5 -13 10 -16 6 -3 10 -2 10 4 0 5 -4 13 -10 16 -5
3 -10 2 -10 -4z"/>
<path d="M5327 3014 c-8 -8 1 -24 14 -24 5 0 9 7 9 15 0 15 -12 20 -23 9z"/>
<path d="M5560 3010 c0 -5 5 -10 11 -10 5 0 7 5 4 10 -3 6 -8 10 -11 10 -2 0
-4 -4 -4 -10z"/>
<path d="M4775 2980 c-3 -5 -1 -10 4 -10 6 0 11 5 11 10 0 6 -2 10 -4 10 -3 0
-8 -4 -11 -10z"/>
<path d="M4810 2854 c0 -35 -15 -61 -69 -118 -37 -40 -40 -46 -16 -30 17 10
39 24 50 30 11 6 25 22 31 35 17 35 26 109 14 109 -5 0 -10 -12 -10 -26z"/>
<path d="M4545 2780 c3 -5 8 -10 11 -10 2 0 4 5 4 10 0 6 -5 10 -11 10 -5 0
-7 -4 -4 -10z"/>
<path d="M4420 2742 c-26 -21 -23 -45 9 -62 17 -8 25 -6 41 10 24 24 23 38 -7
57 -17 12 -23 11 -43 -5z m40 -28 c0 -14 -21 -19 -33 -7 -9 9 13 34 24 27 5
-3 9 -12 9 -20z"/>
<path d="M4822 2739 c-7 -12 -11 -24 -7 -27 7 -8 25 17 25 36 0 17 -3 15 -18
-9z"/>
<path d="M5500 2730 c0 -5 5 -10 11 -10 5 0 7 5 4 10 -3 6 -8 10 -11 10 -2 0
-4 -4 -4 -10z"/>
<path d="M5461 2711 c-17 -11 -7 -41 13 -41 22 0 30 20 15 36 -9 8 -19 10 -28
5z"/>
<path d="M5450 2387 c0 -20 26 -39 47 -35 14 3 12 8 -15 26 -24 18 -32 20 -32
9z"/>
<path d="M4443 2377 c-24 -10 -28 -36 -13 -72 7 -17 9 -16 9 9 1 16 8 38 18
48 20 23 15 29 -14 15z"/>
<path d="M5605 2380 c-3 -5 1 -10 10 -10 9 0 13 5 10 10 -3 6 -8 10 -10 10 -2
0 -7 -4 -10 -10z"/>
<path d="M5735 2310 c11 -12 19 -32 17 -46 -4 -30 2 -30 22 0 15 24 14 25 -22
46 l-37 22 20 -22z"/>
<path d="M4605 2300 c3 -5 11 -10 16 -10 6 0 7 5 4 10 -3 6 -11 10 -16 10 -6
0 -7 -4 -4 -10z"/>
<path d="M4565 2270 c-3 -5 1 -10 9 -10 9 0 16 5 16 10 0 6 -4 10 -9 10 -6 0
-13 -4 -16 -10z"/>
<path d="M5562 2198 c2 -12 8 -23 14 -25 7 -2 10 6 7 22 -6 30 -26 34 -21 3z"/>
<path d="M5620 2194 c0 -17 22 -14 28 4 2 7 -3 12 -12 12 -9 0 -16 -7 -16 -16z"/>
<path d="M5613 2114 c-3 -8 -1 -20 6 -27 14 -14 47 15 37 32 -10 16 -36 13
-43 -5z"/>
<path d="M4740 2010 c0 -5 5 -10 11 -10 5 0 7 5 4 10 -3 6 -8 10 -11 10 -2 0
-4 -4 -4 -10z"/>
<path d="M4990 1995 c7 -9 15 -13 17 -11 7 7 -7 26 -19 26 -6 0 -6 -6 2 -15z"/>
<path d="M4941 1977 c-14 -17 3 -41 23 -34 9 4 16 13 16 21 0 19 -26 28 -39
13z"/>
</g>
</svg>
